<svg xmlns="http://www.w3.org/2000/svg" width="18" height="14" fill="none"><path fill="url(#a)" d="M15.67.3H2.33C1.42.3.67 1.05.67 1.97v10.06c0 .92.75 1.67 1.66 1.67h13.34c.91 0 1.66-.75 1.66-1.67V1.97c0-.92-.75-1.67-1.66-1.67Zm-.34 3.56-5.89 3.7a.84.84 0 0 1-.88 0l-5.9-3.7a.7.7 0 0 1-.34-.73.71.71 0 0 1 .55-.59.7.7 0 0 1 .55.11L9 6.16l5.58-3.51a.7.7 0 0 1 1.1.48.71.71 0 0 1-.35.73Z"/><defs><linearGradient id="a" x1="8.27" x2="8.27" y1=".3" y2="12.43" gradientUnits="userSpaceOnUse"><stop stop-color="#C7F38D"/><stop offset="1" stop-color="#8CB346"/></linearGradient></defs></svg>