<svg xmlns="http://www.w3.org/2000/svg" width="18" height="17" fill="none"><path fill="url(#a)" d="M9 .12a8.3 8.3 0 0 0-5.9 2.45 8.4 8.4 0 0 0 3.27 13.9c.41.06.55-.2.55-.43v-1.41c-2.31.5-2.8-1.13-2.8-1.13-.39-.97-.93-1.23-.93-1.23-.76-.52.06-.5.06-.5.83.06 1.28.86 1.28.86.72 1.28 1.95.9 2.42.7.08-.55.3-.92.53-1.13-1.85-.2-3.8-.93-3.8-4.12 0-.93.32-1.68.86-2.27a3.01 3.01 0 0 1 .09-2.21s.7-.23 2.29.85a7.81 7.81 0 0 1 4.16 0c1.6-1.08 2.3-.85 2.3-.85.45 1.13.16 2 .08 2.21.54.6.86 1.34.86 2.27 0 3.2-1.95 3.9-3.81 4.12.3.26.57.77.57 1.55v2.3c0 .22.14.49.56.41A8.4 8.4 0 0 0 9 .12Z"/><defs><linearGradient id="a" x1="8.27" x2="8.27" y1=".12" y2="14.92" gradientUnits="userSpaceOnUse"><stop stop-color="#C7F38D"/><stop offset="1" stop-color="#8CB346"/></linearGradient></defs></svg>