<svg xmlns="http://www.w3.org/2000/svg" width="20" height="21" fill="none"><path fill="url(#a)" d="M10 .7C7.28.7 6.94.7 5.88.74a7.37 7.37 0 0 0-2.43.47 4.9 4.9 0 0 0-1.77 1.15c-.56.56-.9 1.11-1.15 1.77a7.35 7.35 0 0 0-.47 2.43C.01 7.64 0 7.97 0 10.7s.01 3.06.06 4.13c.05 1.06.22 1.79.47 2.42.25.66.6 1.22 1.15 1.77.55.56 1.11.9 1.77 1.16.64.24 1.36.41 2.43.46 1.06.05 1.4.06 4.12.06s3.06 0 4.12-.06a7.4 7.4 0 0 0 2.43-.46c.66-.26 1.22-.6 1.77-1.16.56-.55.9-1.1 1.16-1.77.24-.63.41-1.36.46-2.42.05-1.07.06-1.41.06-4.13 0-2.71-.01-3.05-.06-4.12a7.4 7.4 0 0 0-.46-2.43 4.9 4.9 0 0 0-1.16-1.77 4.87 4.87 0 0 0-1.77-1.15 7.36 7.36 0 0 0-2.43-.47C13.06.7 12.72.7 10 .7Zm0 1.8c2.67 0 2.99 0 4.04.05.98.05 1.5.21 1.86.35.47.18.8.4 1.15.74.35.35.56.69.75 1.16.13.35.3.88.34 1.85.05 1.06.06 1.37.06 4.04s-.01 3-.06 4.04c-.05.98-.22 1.5-.35 1.86-.2.47-.4.8-.75 1.15-.35.35-.69.57-1.15.75-.35.14-.9.3-1.87.34-1.06.05-1.37.06-4.04.06a67.6 67.6 0 0 1-4.05-.06 5.67 5.67 0 0 1-1.87-.35 3.1 3.1 0 0 1-1.15-.75 3.04 3.04 0 0 1-.75-1.15c-.13-.35-.3-.89-.35-1.86-.03-1.05-.05-1.38-.05-4.04s.02-2.99.05-4.05c.05-.98.22-1.51.35-1.86.18-.48.4-.8.75-1.15.35-.35.68-.58 1.15-.75.35-.14.88-.3 1.85-.35 1.07-.04 1.38-.05 4.05-.05l.04.02Zm0 3.06a5.13 5.13 0 1 0 0 10.27 5.13 5.13 0 0 0 0-10.27Zm0 8.47a3.33 3.33 0 1 1 0-6.67 3.33 3.33 0 0 1 0 6.67Zm6.54-8.67a1.2 1.2 0 1 1-2.4 0 1.2 1.2 0 0 1 2.4 0Z"/><defs><linearGradient id="a" x1="9.13" x2="9.13" y1=".69" y2="18.79" gradientUnits="userSpaceOnUse"><stop stop-color="#C7F38D"/><stop offset="1" stop-color="#8CB346"/></linearGradient></defs></svg>