<svg xmlns="http://www.w3.org/2000/svg" width="191" height="40" fill="none"><path fill="#fff" d="M.1 21.03V.58h8.68c.94 0 1.8.19 2.6.57A7.28 7.28 0 0 1 14.8 4.9a7.04 7.04 0 0 1-2.54 8.3c-.95.65-2.06.98-3.35.98H4.08v6.85H.11ZM4.09 10.7H8.7c.48 0 .92-.13 1.3-.4s.7-.66.92-1.16c.23-.51.35-1.1.35-1.75 0-.71-.14-1.32-.4-1.82a2.62 2.62 0 0 0-2.34-1.5H4.08v6.63ZM24.38 21.32a7.71 7.71 0 0 1-7.4-4.78 8.14 8.14 0 0 1-.56-2.97c0-1.44.32-2.76.95-3.95a7.44 7.44 0 0 1 2.77-2.85 8.1 8.1 0 0 1 4.27-1.1c1.65 0 3.06.37 4.23 1.1a7.87 7.87 0 0 1 3.6 7.38l-.06.57H20.52c.07.77.3 1.44.66 2.02.38.58.86 1.02 1.44 1.33a4.46 4.46 0 0 0 4.06-.12c.7-.38 1.16-.88 1.41-1.5l3.32.92a6.2 6.2 0 0 1-1.59 2.05 7.58 7.58 0 0 1-2.39 1.41 9.1 9.1 0 0 1-3.05.5Zm-3.95-9.05h7.9a4.36 4.36 0 0 0-.67-1.98 3.85 3.85 0 0 0-3.31-1.82 3.79 3.79 0 0 0-3.29 1.82 4.58 4.58 0 0 0-.63 1.98ZM33.7 13.48c0-1.46.29-2.77.87-3.94a7.04 7.04 0 0 1 2.39-2.83 6.06 6.06 0 0 1 3.48-1.03 5.5 5.5 0 0 1 3 .83c.9.54 1.6 1.23 2.1 2.08V0h3.86v16.71c0 .4.07.7.2.87.14.17.37.28.7.31v3.14c-.67.14-1.22.2-1.64.2a2.8 2.8 0 0 1-1.73-.51 1.9 1.9 0 0 1-.75-1.36l-.06-.95a5.6 5.6 0 0 1-2.28 2.16c-.94.5-1.93.75-2.96.75a6.86 6.86 0 0 1-5.16-2.27 8.07 8.07 0 0 1-2.02-5.57Zm11.84 2.02v-3.6c-.19-.56-.5-1.06-.92-1.5-.42-.44-.9-.79-1.41-1.04a3.35 3.35 0 0 0-3.17-.02 4.26 4.26 0 0 0-2.07 2.47 5.9 5.9 0 0 0 .02 3.52 4.3 4.3 0 0 0 2.22 2.36 4.07 4.07 0 0 0 2.77.17 4 4 0 0 0 2.56-2.36ZM62.18 9.28c-1.17 0-2.21.23-3.14.69a4.05 4.05 0 0 0-1.98 1.93v9.13h-3.87V5.93h3.55v3.23a6.82 6.82 0 0 1 2.04-2.45c.83-.6 1.7-.92 2.63-.98h.49c.11 0 .2.01.28.03v3.52ZM71.11 21.32A7.5 7.5 0 0 1 65.3 19a8.14 8.14 0 0 1-2.1-5.47A8.22 8.22 0 0 1 65.29 8c.7-.73 1.53-1.3 2.51-1.7a8.29 8.29 0 0 1 3.31-.63A8.08 8.08 0 0 1 76.91 8a8.21 8.21 0 0 1 1.56 8.47 7.24 7.24 0 0 1-1.56 2.5c-.68.74-1.5 1.31-2.48 1.74-.98.4-2.09.6-3.32.6Zm-3.94-7.8c0 .88.17 1.66.51 2.36.35.67.82 1.2 1.42 1.58.6.39 1.26.58 2.01.58.73 0 1.4-.2 2-.58.59-.4 1.06-.94 1.4-1.61.37-.7.55-1.48.55-2.37 0-.86-.18-1.64-.55-2.33a4 4 0 0 0-1.4-1.61 3.6 3.6 0 0 0-2-.58c-.75 0-1.42.2-2.01.6a4 4 0 0 0-1.42 1.62 5.03 5.03 0 0 0-.51 2.33ZM83.78 12.5h4.03l7.52 20.46h-4.09l-1.9-5.1H82.2l-1.88 5.1h-4.09l7.55-20.45Zm4.84 12.57-2.82-8.44-2.94 8.44h5.76ZM97.06 27.32v-9.45h3.86v8.61c0 1.15.21 2.03.63 2.62.43.58 1.05.87 1.88.87a3.92 3.92 0 0 0 2.82-1.21c.42-.4.78-.91 1.07-1.53v-9.36h3.86v10.77c0 .4.06.7.2.87.15.17.4.28.72.31v3.14a12.97 12.97 0 0 1-1.67.18c-.7 0-1.26-.16-1.7-.46a1.94 1.94 0 0 1-.75-1.33l-.09-1.2a6.72 6.72 0 0 1-2.59 2.33 7.8 7.8 0 0 1-3.49.77c-1.55 0-2.73-.5-3.54-1.5-.8-1.01-1.21-2.5-1.21-4.43ZM120.92 33.05c-1 0-1.92-.2-2.76-.57A6.75 6.75 0 0 1 116 30.8a7.84 7.84 0 0 1-1.39-2.45 8.73 8.73 0 0 1-.49-2.93c0-1.1.17-2.12.52-3.06s.83-1.77 1.44-2.48a6.45 6.45 0 0 1 5.07-2.27c1.17 0 2.2.27 3.09.8a6.54 6.54 0 0 1 2.19 2.1v-2.64h3.37v14.37a6.57 6.57 0 0 1-4.07 6.29c-1.26.57-2.7.86-4.32.86a9.34 9.34 0 0 1-4.15-.84 8.25 8.25 0 0 1-2.9-2.3l2.1-2.05a6 6 0 0 0 2.16 1.67c.88.4 1.81.61 2.8.61.82 0 1.57-.15 2.24-.46a3.5 3.5 0 0 0 1.64-1.38c.42-.62.64-1.42.64-2.4v-1.9a5.15 5.15 0 0 1-2.14 2.02c-.9.46-1.86.7-2.88.7Zm1.3-3.08c.42 0 .83-.07 1.2-.2a4.31 4.31 0 0 0 2.52-2.34v-3.6a4.66 4.66 0 0 0-2.37-2.56 3.5 3.5 0 0 0-1.58-.38 3.44 3.44 0 0 0-2.85 1.44 5.1 5.1 0 0 0-.75 4.93c.2.54.5 1 .86 1.41a4 4 0 0 0 2.97 1.3ZM133.13 27.32v-9.45H137v8.61c0 1.15.22 2.03.64 2.62.42.58 1.05.87 1.87.87a3.92 3.92 0 0 0 2.82-1.21c.43-.4.78-.91 1.07-1.53v-9.36h3.86v10.77c0 .4.07.7.2.87.16.17.4.28.72.31v3.14a12.99 12.99 0 0 1-1.67.18c-.69 0-1.26-.16-1.7-.46a1.94 1.94 0 0 1-.75-1.33l-.08-1.2a6.72 6.72 0 0 1-2.6 2.33 7.8 7.8 0 0 1-3.48.77c-1.56 0-2.74-.5-3.55-1.5-.8-1.01-1.2-2.5-1.2-4.43ZM156.65 33.25c-1.29 0-2.52-.2-3.69-.63a8.29 8.29 0 0 1-3.02-1.87l1.38-2.51c.9.73 1.79 1.27 2.65 1.61.88.35 1.73.52 2.54.52.75 0 1.34-.13 1.78-.4.46-.27.7-.67.7-1.21a.99.99 0 0 0-.38-.84c-.25-.2-.62-.4-1.1-.55-.46-.15-1.02-.32-1.7-.51a26.42 26.42 0 0 1-2.8-1.07 4.3 4.3 0 0 1-1.7-1.3 3.57 3.57 0 0 1-.54-2.04c0-1 .25-1.86.75-2.57a5.1 5.1 0 0 1 2.13-1.7 8 8 0 0 1 3.23-.6c1.08 0 2.1.17 3.06.52a7.1 7.1 0 0 1 2.62 1.61L161 22.16a8.96 8.96 0 0 0-2.19-1.3 5.43 5.43 0 0 0-3.25-.29c-.35.1-.64.26-.87.5-.21.2-.32.51-.32.92 0 .36.1.65.3.86.2.2.51.37.91.52.43.15.93.33 1.53.52 1.21.34 2.23.7 3.05 1.06.85.37 1.48.82 1.9 1.36.43.52.64 1.24.64 2.16a4.2 4.2 0 0 1-1.64 3.52 7.03 7.03 0 0 1-4.41 1.26ZM174.29 32.19l-1.18.46c-.46.17-.96.3-1.5.4-.52.12-1.05.17-1.58.17-.72 0-1.37-.12-1.96-.37a3.2 3.2 0 0 1-1.44-1.18 4.04 4.04 0 0 1-.52-2.16v-8.68h-2v-2.96h2v-4.9h3.86v4.9h3.17v2.96h-3.17v7.38c.02.52.16.9.43 1.12.27.23.6.35 1 .35.41 0 .8-.07 1.19-.2.38-.14.7-.25.92-.35l.78 3.06ZM183.1 33.25a7.5 7.5 0 0 1-5.82-2.33 8.14 8.14 0 0 1-2.1-5.47 8.21 8.21 0 0 1 2.1-5.5c.7-.74 1.53-1.3 2.51-1.7a8.3 8.3 0 0 1 3.31-.64c1.23 0 2.33.2 3.29.63a7.17 7.17 0 0 1 4.06 4.2 8.21 8.21 0 0 1 0 5.97 7.25 7.25 0 0 1-1.55 2.5 7.2 7.2 0 0 1-2.48 1.74c-.98.4-2.09.6-3.31.6Zm-3.94-7.8c0 .88.17 1.67.52 2.36.34.67.81 1.2 1.4 1.58.6.39 1.28.58 2.02.58s1.4-.2 2-.58c.59-.4 1.06-.94 1.4-1.61.37-.7.55-1.48.55-2.36 0-.87-.18-1.65-.55-2.34a4 4 0 0 0-1.4-1.61 3.59 3.59 0 0 0-2-.58c-.74 0-1.42.2-2.01.6a4 4 0 0 0-1.41 1.62 5.03 5.03 0 0 0-.52 2.33Z"/><path fill="url(#a)" d="M0 25.09h76.09l-1.18 2.7H0v-2.7Z"/><defs><linearGradient id="a" x1="95.5" x2="95.5" y1="0" y2="39.39" gradientUnits="userSpaceOnUse"><stop stop-color="#84CC63"/><stop offset="1" stop-color="#75992E"/></linearGradient></defs></svg>