<svg xmlns="http://www.w3.org/2000/svg" width="16" height="16" fill="none"><path fill="url(#a)" d="m14.03 10.98-2.12-.24a1.65 1.65 0 0 0-1.37.48l-1.53 1.54a12.57 12.57 0 0 1-5.5-5.52l1.55-1.55c.36-.36.53-.87.47-1.38L5.3 2.2A1.68 1.68 0 0 0 3.63.72H2.2C1.25.72.47 1.5.53 2.45a14.2 14.2 0 0 0 13.24 13.32c.94.06 1.72-.73 1.72-1.68v-1.45a1.67 1.67 0 0 0-1.46-1.66Z"/><defs><linearGradient id="a" x1="7.35" x2="7.35" y1=".72" y2="14.34" gradientUnits="userSpaceOnUse"><stop stop-color="#C7F38D"/><stop offset="1" stop-color="#8CB346"/></linearGradient></defs></svg>