<svg xmlns="http://www.w3.org/2000/svg" width="10" height="10" fill="none"><path fill="#fff" d="M4.67 1.33v-1a.33.33 0 0 1 .66 0v1a.33.33 0 0 1-.66 0Zm3 3.67a2.67 2.67 0 1 1-5.34 0 2.67 2.67 0 0 1 5.34 0ZM7 5a2 2 0 1 0-4 0 2 2 0 0 0 4 0ZM2.1 2.57a.33.33 0 0 0 .47-.47l-.67-.67a.33.33 0 0 0-.47.47l.67.67Zm0 4.86-.67.67a.33.33 0 0 0 .47.47l.67-.67a.33.33 0 0 0-.47-.47Zm5.57-4.76a.33.33 0 0 0 .23-.1l.67-.67a.33.33 0 0 0-.47-.47l-.67.67a.33.33 0 0 0 .24.57Zm.23 4.76a.33.33 0 0 0-.47.47l.67.67a.33.33 0 0 0 .47-.47l-.67-.67ZM1.67 5a.33.33 0 0 0-.34-.33h-1a.33.33 0 0 0 0 .66h1A.33.33 0 0 0 1.67 5ZM5 8.33a.33.33 0 0 0-.33.34v1a.33.33 0 0 0 .66 0v-1A.33.33 0 0 0 5 8.33Zm4.67-3.66h-1a.33.33 0 0 0 0 .66h1a.33.33 0 0 0 0-.66Z"/></svg>